<svg width="450" height="450" viewBox="0 0 450 450" fill="none" xmlns="http://www.w3.org/2000/svg">
<path d="M427.474 81H234V31.41C234.004 27.284 233.194 23.1977 231.617 19.385C230.039 15.5723 227.726 12.1081 224.808 9.19069C221.89 6.27322 218.426 3.95977 214.613 2.38272C210.8 0.805672 206.714 -0.00401007 202.588 1.4933e-05H31.4077C27.282 -0.00354981 23.1961 0.806477 19.3838 2.38374C15.5714 3.96101 12.1076 6.27455 9.19035 9.19198C6.27314 12.1094 3.95985 15.5735 2.38286 19.3859C0.805874 23.1983 -0.00385307 27.2843 1.37845e-05 31.41V418.59C0.00740056 426.918 3.31872 434.902 9.20714 440.791C15.0956 446.68 23.0799 449.992 31.4077 450H202.588C210.916 449.993 218.902 446.682 224.791 440.793C230.68 434.904 233.992 426.919 234 418.59V261H427.477C433.451 261 439.179 258.627 443.403 254.403C447.627 250.179 450 244.451 450 238.477V103.526C450 100.568 449.417 97.6386 448.285 94.9056C447.153 92.1726 445.494 89.6894 443.402 87.5976C441.311 85.5059 438.827 83.8467 436.094 82.7146C433.361 81.5826 430.432 81 427.474 81ZM94.5 19.08H139.5C142.484 19.08 145.345 20.2653 147.455 22.3751C149.565 24.4848 150.75 27.3463 150.75 30.33C150.75 33.3137 149.565 36.1752 147.455 38.285C145.345 40.3947 142.484 41.58 139.5 41.58H94.5C91.5163 41.58 88.6549 40.3947 86.5451 38.285C84.4353 36.1752 83.25 33.3137 83.25 30.33C83.25 27.3463 84.4353 24.4848 86.5451 22.3751C88.6549 20.2653 91.5163 19.08 94.5 19.08ZM139.496 430.845H94.4956C91.5119 430.845 88.6504 429.66 86.5407 427.55C84.4309 425.44 83.2456 422.579 83.2456 419.595C83.2456 416.611 84.4309 413.75 86.5407 411.64C88.6504 409.53 91.5119 408.345 94.4956 408.345H139.496C142.479 408.345 145.341 409.53 147.451 411.64C149.56 413.75 150.746 416.611 150.746 419.595C150.746 422.579 149.56 425.44 147.451 427.55C145.341 429.66 142.479 430.845 139.496 430.845ZM214.198 389.25H19.7974V60.75H214.198V81H94.3149C88.3966 81 82.7208 83.351 78.5359 87.5359C74.351 91.7208 72 97.3966 72 103.315V238.664C72 241.597 72.5777 244.502 73.7002 247.212C74.8227 249.922 76.4679 252.384 78.542 254.458C80.6161 256.532 83.0784 258.177 85.7883 259.3C88.4982 260.422 91.4027 261 94.3359 261H135V297.149C135 299.349 135.652 301.499 136.874 303.328C138.097 305.157 139.834 306.583 141.866 307.424C143.898 308.266 146.135 308.486 148.292 308.057C150.45 307.628 152.431 306.569 153.987 305.013L198 261H214.198V389.25ZM189.808 179.19C192.39 180.689 194.274 183.149 195.05 186.032C195.826 188.915 195.429 191.988 193.948 194.58C193.216 195.869 192.236 197.001 191.063 197.908C189.891 198.815 188.55 199.481 187.118 199.866C185.687 200.251 184.193 200.348 182.723 200.152C181.254 199.955 179.838 199.468 178.558 198.72L164.25 190.44V207C164.25 209.984 163.065 212.845 160.955 214.955C158.845 217.065 155.984 218.25 153 218.25C150.016 218.25 147.155 217.065 145.045 214.955C142.935 212.845 141.75 209.984 141.75 207V190.44L127.437 198.72C126.157 199.468 124.741 199.955 123.272 200.152C121.802 200.348 120.309 200.251 118.877 199.866C117.445 199.481 116.104 198.815 114.932 197.908C113.759 197.001 112.779 195.869 112.047 194.58C110.568 191.987 110.173 188.915 110.948 186.033C111.724 183.15 113.607 180.691 116.187 179.19L130.5 171L116.187 162.72C113.597 161.228 111.706 158.769 110.93 155.883C110.154 152.996 110.556 149.92 112.047 147.33C113.539 144.741 115.999 142.85 118.885 142.073C121.771 141.297 124.847 141.699 127.437 143.191L141.75 151.47V135C141.75 132.016 142.935 129.155 145.045 127.045C147.155 124.935 150.016 123.75 153 123.75C155.984 123.75 158.845 124.935 160.955 127.045C163.065 129.155 164.25 132.016 164.25 135V151.47L178.559 143.191C181.148 141.699 184.225 141.297 187.111 142.073C189.997 142.85 192.456 144.741 193.948 147.33C195.44 149.92 195.842 152.996 195.066 155.883C194.289 158.769 192.398 161.228 189.809 162.72L175.5 171L189.808 179.19ZM297.808 179.19C300.39 180.689 302.274 183.149 303.05 186.032C303.826 188.915 303.429 191.988 301.948 194.58C301.216 195.869 300.236 197.001 299.063 197.908C297.891 198.815 296.55 199.481 295.118 199.866C293.687 200.251 292.193 200.348 290.723 200.152C289.254 199.955 287.838 199.468 286.558 198.72L272.25 190.44V207C272.25 209.984 271.065 212.845 268.955 214.955C266.845 217.065 263.984 218.25 261 218.25C258.016 218.25 255.155 217.065 253.045 214.955C250.935 212.845 249.75 209.984 249.75 207V190.44L235.437 198.72C234.157 199.468 232.741 199.955 231.272 200.152C229.802 200.348 228.309 200.251 226.877 199.866C225.445 199.481 224.104 198.815 222.932 197.908C221.759 197.001 220.779 195.869 220.047 194.58C218.568 191.987 218.173 188.915 218.948 186.033C219.724 183.15 221.607 180.691 224.187 179.19L238.5 171L224.187 162.72C221.597 161.228 219.706 158.769 218.93 155.883C218.154 152.996 218.556 149.92 220.047 147.33C221.539 144.741 223.999 142.85 226.885 142.073C229.771 141.297 232.847 141.699 235.437 143.191L249.75 151.47V135C249.75 132.016 250.935 129.155 253.045 127.045C255.155 124.935 258.016 123.75 261 123.75C263.984 123.75 266.845 124.935 268.955 127.045C271.065 129.155 272.25 132.016 272.25 135V151.47L286.559 143.191C289.148 141.699 292.225 141.297 295.111 142.073C297.997 142.85 300.456 144.741 301.948 147.33C303.44 149.92 303.842 152.996 303.066 155.883C302.289 158.769 300.398 161.228 297.809 162.72L283.5 171L297.808 179.19ZM405.808 179.19C408.39 180.689 410.274 183.149 411.05 186.032C411.826 188.915 411.429 191.988 409.948 194.58C409.216 195.869 408.236 197.001 407.063 197.908C405.891 198.815 404.55 199.481 403.118 199.866C401.687 200.251 400.193 200.348 398.723 200.152C397.254 199.955 395.838 199.468 394.558 198.72L380.25 190.44V207C380.25 209.984 379.065 212.845 376.955 214.955C374.845 217.065 371.984 218.25 369 218.25C366.016 218.25 363.155 217.065 361.045 214.955C358.935 212.845 357.75 209.984 357.75 207V190.44L343.437 198.72C342.157 199.468 340.741 199.955 339.272 200.152C337.802 200.348 336.309 200.251 334.877 199.866C333.445 199.481 332.104 198.815 330.932 197.908C329.759 197.001 328.779 195.869 328.047 194.58C326.568 191.987 326.173 188.915 326.948 186.033C327.724 183.15 329.607 180.691 332.187 179.19L346.5 171L332.187 162.72C329.597 161.228 327.706 158.769 326.93 155.883C326.154 152.996 326.556 149.92 328.047 147.33C329.539 144.741 331.999 142.85 334.885 142.073C337.771 141.297 340.847 141.699 343.437 143.191L357.75 151.47V135C357.75 132.016 358.935 129.155 361.045 127.045C363.155 124.935 366.016 123.75 369 123.75C371.984 123.75 374.845 124.935 376.955 127.045C379.065 129.155 380.25 132.016 380.25 135V151.47L394.559 143.191C395.841 142.452 397.256 141.973 398.724 141.781C400.191 141.59 401.682 141.689 403.111 142.073C404.54 142.458 405.879 143.12 407.052 144.022C408.226 144.924 409.21 146.048 409.948 147.33C410.687 148.613 411.166 150.028 411.358 151.495C411.549 152.963 411.45 154.453 411.066 155.883C410.681 157.312 410.019 158.651 409.117 159.824C408.215 160.997 407.091 161.981 405.809 162.72L391.5 171L405.808 179.19Z" fill="#0399D2"/>
</svg>
